<?xml version="1.0" standalone="no"?>
<!DOCTYPE svg PUBLIC "-//W3C//DTD SVG 20010904//EN"
 "http://www.w3.org/TR/2001/REC-SVG-20010904/DTD/svg10.dtd">
<svg version="1.0" xmlns="http://www.w3.org/2000/svg"
 width="445.000000pt" height="445.000000pt" viewBox="0 0 445.000000 445.000000"
 preserveAspectRatio="xMidYMid meet">
<metadata>
Created by potrace 1.14, written by Peter Selinger 2001-2017
</metadata>
<g transform="translate(0.000000,445.000000) scale(0.100000,-0.100000)"
fill="#000000" stroke="none">
<path d="M3749 3751 c-31 -31 -37 -67 -18 -103 9 -17 8 -23 -7 -31 -56 -31
-103 -117 -104 -187 0 -65 67 -184 133 -234 28 -22 33 -31 29 -56 l-4 -31 68
3 69 3 -3 39 c-3 36 1 44 57 100 67 68 91 115 91 179 0 54 -41 139 -81 168
-19 13 -29 29 -29 45 0 37 -51 84 -90 84 -34 0 -90 -46 -90 -74 0 -21 -16 -21
-24 0 -12 32 -5 63 20 93 33 39 22 40 -17 2z"/>
<path d="M2235 3411 c-83 -34 -83 -159 0 -198 l35 -17 0 -125 -1 -126 -19 48
c-42 109 -117 166 -228 174 l-67 5 32 -33 c18 -19 89 -83 157 -144 l125 -110
0 -270 1 -270 -75 -63 c-47 -38 -77 -57 -80 -50 -2 7 -13 47 -25 89 -29 108
-78 228 -142 352 -54 102 -158 267 -168 267 -3 -1 -33 -36 -66 -78 -159 -199
-286 -445 -345 -662 -12 -47 -24 -86 -25 -88 -1 -2 -24 20 -50 49 -116 123
-295 253 -483 348 -117 59 -287 128 -295 120 -3 -3 -8 -46 -12 -97 -4 -51 -10
-92 -13 -92 -3 0 -39 9 -80 20 -41 11 -79 20 -84 20 -14 0 -1 -173 22 -311
101 -588 408 -974 949 -1195 105 -43 106 -44 62 -44 -144 0 -749 -31 -912 -46
l-68 -7 0 227 c0 207 2 227 18 233 27 9 52 45 52 76 0 38 -40 77 -80 77 -80 0
-109 -109 -39 -146 l29 -15 0 -102 0 -102 -19 40 c-26 57 -81 102 -135 110
-25 4 -50 5 -57 3 -6 -2 38 -49 99 -103 l111 -100 -2 -100 -2 -100 -110 -12
c-60 -7 -137 -20 -170 -29 -101 -25 -100 -44 3 -68 583 -133 3536 -140 4240
-10 254 46 130 91 -365 131 -147 12 -213 21 -213 29 0 6 15 15 34 18 19 4 39
12 45 19 26 32 63 378 76 727 4 101 15 199 31 281 32 163 54 328 54 408 0 62
0 63 25 57 29 -8 29 -9 10 38 -10 24 -27 42 -49 53 -38 18 -72 11 -62 -12 21
-51 22 -49 -26 -42 -63 9 -139 39 -231 91 l-78 44 -39 -78 c-38 -76 -41 -78
-82 -85 -64 -11 -280 -74 -303 -89 -24 -15 -65 -27 -62 -17 1 3 -6 17 -15 30
l-16 23 -69 -45 c-37 -24 -79 -56 -92 -70 -25 -28 -20 -52 10 -44 23 6 24 -1
4 -27 -8 -11 -15 -30 -15 -42 0 -22 135 -364 175 -444 13 -25 31 -56 42 -68
l19 -24 57 26 c64 28 71 21 27 -24 -16 -17 -30 -40 -30 -50 0 -19 -8 -20 -180
-20 l-180 0 0 -307 0 -308 -457 3 -457 2 114 64 c492 273 746 663 801 1231 11
114 9 369 -4 381 -7 7 -169 -57 -272 -109 -73 -36 -159 -86 -227 -131 l-28
-18 0 420 0 420 31 12 c36 15 69 63 69 100 0 14 -9 40 -20 58 -28 46 -83 64
-135 43z m-1480 -895 c202 -96 377 -218 513 -360 64 -65 73 -79 68 -103 -2
-16 -7 -49 -11 -74 l-6 -46 -92 92 c-152 150 -392 295 -629 380 l-78 28 0 57
c0 32 3 71 6 88 l6 31 57 -21 c31 -11 106 -44 166 -72z m2907 -386 c14 -96 8
-302 -12 -370 -75 -257 -98 -386 -107 -596 -8 -171 -2 -198 40 -211 l32 -9
-32 -17 c-18 -9 -37 -17 -43 -17 -7 0 -10 103 -10 320 l0 320 -82 0 c-52 0
-78 4 -69 9 15 9 14 10 -18 105 -12 33 -21 60 -21 62 0 1 27 22 60 45 33 23
62 50 65 60 9 27 -19 62 -136 173 -63 60 -96 98 -87 101 34 12 366 73 388 72
22 -2 26 -8 32 -47z m-357 -710 c63 -31 111 -94 121 -155 17 -117 -32 -205
-115 -205 -28 0 -46 6 -58 19 -16 20 -17 20 -41 0 -39 -31 -98 -26 -132 11
-97 103 17 294 124 209 21 -17 26 -18 26 -5 0 11 9 16 30 16 l30 0 0 -99 c0
-56 4 -103 10 -106 36 -23 80 37 80 110 0 92 -64 167 -158 185 -172 32 -299
-110 -252 -282 26 -92 101 -137 228 -138 67 0 82 -3 82 -15 0 -35 -109 -46
-196 -20 -61 18 -118 64 -147 118 -32 63 -31 184 3 251 28 56 78 100 136 122
60 22 168 14 229 -16z"/>
<path d="M3120 1243 c-41 -52 -12 -133 46 -133 29 0 64 44 64 80 0 36 -35 80
-65 80 -14 0 -33 -11 -45 -27z"/>
</g>
</svg>
