<svg width="21" height="21" viewBox="0 0 21 21" fill="none" xmlns="http://www.w3.org/2000/svg">
<path d="M11.528 0.879404C12.2577 0.876604 12.9875 0.883938 13.717 0.901404L13.911 0.908404C14.135 0.916404 14.356 0.926404 14.623 0.938404C15.687 0.988404 16.413 1.1564 17.05 1.4034C17.71 1.6574 18.266 2.0014 18.822 2.5574C19.3304 3.05701 19.7238 3.66135 19.975 4.3284C20.222 4.9654 20.39 5.6924 20.44 6.7564C20.452 7.0224 20.462 7.2444 20.47 7.4684L20.476 7.6624C20.4938 8.3916 20.5014 9.121 20.499 9.8504L20.5 10.5964V11.9064C20.5025 12.6361 20.4948 13.3659 20.477 14.0954L20.471 14.2894C20.463 14.5134 20.453 14.7344 20.441 15.0014C20.391 16.0654 20.221 16.7914 19.975 17.4284C19.7246 18.0962 19.3311 18.701 18.822 19.2004C18.322 19.7087 17.7173 20.1022 17.05 20.3534C16.413 20.6004 15.687 20.7684 14.623 20.8184C14.356 20.8304 14.135 20.8404 13.911 20.8484L13.717 20.8544C12.9875 20.8722 12.2577 20.8798 11.528 20.8774L10.782 20.8784H9.473C8.74326 20.8809 8.01352 20.8732 7.284 20.8554L7.09 20.8494C6.85261 20.8408 6.61527 20.8308 6.378 20.8194C5.314 20.7694 4.588 20.5994 3.95 20.3534C3.28268 20.1027 2.67823 19.7092 2.179 19.2004C1.67004 18.7007 1.27622 18.096 1.025 17.4284C0.777997 16.7914 0.609997 16.0654 0.559997 15.0014C0.54886 14.7641 0.53886 14.5268 0.529997 14.2894L0.524997 14.0954C0.506561 13.3659 0.498227 12.6362 0.499997 11.9064V9.8504C0.497206 9.12101 0.50454 8.3916 0.521997 7.6624L0.528997 7.4684C0.536997 7.2444 0.546997 7.0224 0.558997 6.7564C0.608997 5.6914 0.776997 4.9664 1.024 4.3284C1.27537 3.66102 1.66996 3.05685 2.18 2.5584C2.67889 2.04916 3.28296 1.65498 3.95 1.4034C4.588 1.1564 5.313 0.988404 6.378 0.938404L7.09 0.908404L7.284 0.903404C8.01318 0.884977 8.74258 0.876643 9.472 0.878404L11.528 0.879404ZM10.5 5.8794C9.8375 5.87003 9.17975 5.99243 8.56497 6.23947C7.95019 6.48652 7.39064 6.85328 6.91884 7.31846C6.44704 7.78364 6.0724 8.33794 5.81668 8.94917C5.56097 9.56039 5.42929 10.2163 5.42929 10.8789C5.42929 11.5415 5.56097 12.1974 5.81668 12.8086C6.0724 13.4199 6.44704 13.9742 6.91884 14.4394C7.39064 14.9045 7.95019 15.2713 8.56497 15.5183C9.17975 15.7654 9.8375 15.8878 10.5 15.8784C11.8261 15.8784 13.0978 15.3516 14.0355 14.4139C14.9732 13.4763 15.5 12.2045 15.5 10.8784C15.5 9.55232 14.9732 8.28055 14.0355 7.34287C13.0978 6.40519 11.8261 5.8794 10.5 5.8794ZM10.5 7.8794C10.8985 7.87206 11.2945 7.9442 11.6648 8.09161C12.0351 8.23902 12.3723 8.45875 12.6568 8.73795C12.9412 9.01715 13.1672 9.35024 13.3214 9.71775C13.4757 10.0853 13.5552 10.4798 13.5553 10.8784C13.5553 11.277 13.476 11.6716 13.3218 12.0391C13.1677 12.4067 12.9418 12.7398 12.6575 13.0191C12.3731 13.2984 12.036 13.5183 11.6657 13.6658C11.2955 13.8133 10.8995 13.8856 10.501 13.8784C9.70535 13.8784 8.94229 13.5623 8.37968 12.9997C7.81707 12.4371 7.501 11.6741 7.501 10.8784C7.501 10.0828 7.81707 9.31969 8.37968 8.75708C8.94229 8.19447 9.70535 7.8784 10.501 7.8784L10.5 7.8794ZM15.75 4.3794C15.4274 4.39232 15.1223 4.52955 14.8986 4.76238C14.6749 4.9952 14.55 5.30554 14.55 5.6284C14.55 5.95127 14.6749 6.26161 14.8986 6.49443C15.1223 6.72725 15.4274 6.86449 15.75 6.8774C16.0815 6.8774 16.3995 6.74571 16.6339 6.51129C16.8683 6.27687 17 5.95892 17 5.6274C17 5.29588 16.8683 4.97794 16.6339 4.74352C16.3995 4.5091 16.0815 4.3774 15.75 4.3774V4.3794Z" fill="#EDEDED"/>
</svg>
