<svg width="17" height="13" viewBox="0 0 17 13" fill="none" xmlns="http://www.w3.org/2000/svg">
<path d="M14.7289 3.72085L8.5716 7.56915L2.41432 3.72085V2.18153L8.5716 6.02983L14.7289 2.18153M14.7289 0.642212H2.41432C1.56 0.642212 0.875 1.32721 0.875 2.18153V11.4175C0.875 11.8257 1.03718 12.2172 1.32586 12.5059C1.61453 12.7946 2.00607 12.9568 2.41432 12.9568H14.7289C15.1371 12.9568 15.5287 12.7946 15.8173 12.5059C16.106 12.2172 16.2682 11.8257 16.2682 11.4175V2.18153C16.2682 1.77328 16.106 1.38175 15.8173 1.09307C15.5287 0.80439 15.1371 0.642212 14.7289 0.642212Z" fill="#EDEDED"/>
</svg>
