<svg width="22" height="22" viewBox="0 0 22 22" fill="none" xmlns="http://www.w3.org/2000/svg">
<path fill-rule="evenodd" clip-rule="evenodd" d="M14.8186 20.269C13.5586 20.2226 9.9877 19.7291 6.24795 15.9902C2.50907 12.2505 2.01645 8.6805 1.9692 7.41962C1.8992 5.49812 3.37095 3.63175 5.07107 2.90287C5.2758 2.81447 5.5 2.78081 5.72166 2.8052C5.94332 2.82959 6.15484 2.91119 6.33545 3.042C7.73545 4.06225 8.70145 5.60575 9.53095 6.81937C9.71346 7.08601 9.79149 7.41048 9.75018 7.73095C9.70887 8.05141 9.55111 8.34548 9.30695 8.55712L7.59982 9.825C7.51735 9.88456 7.45929 9.97202 7.43644 10.0712C7.41359 10.1703 7.42749 10.2743 7.47557 10.364C7.86232 11.0666 8.55007 12.1131 9.33757 12.9006C10.1259 13.6881 11.2214 14.4214 11.9731 14.8519C12.0673 14.9048 12.1782 14.9196 12.283 14.8932C12.3879 14.8668 12.4786 14.8013 12.5366 14.7101L13.6478 13.0187C13.8521 12.7474 14.1535 12.5656 14.4889 12.5114C14.8242 12.4573 15.1675 12.535 15.4468 12.7282C16.6779 13.5805 18.1147 14.5299 19.1664 15.8765C19.3079 16.0584 19.3978 16.275 19.4269 16.5036C19.456 16.7321 19.4232 16.9643 19.3318 17.1759C18.5994 18.8848 16.7462 20.3399 14.8186 20.269Z" fill="#EDEDED"/>
</svg>
