<svg width="22" height="18" viewBox="0 0 22 18" fill="none" xmlns="http://www.w3.org/2000/svg">
<path d="M7.31049 17.5526C15.1527 17.5526 19.4426 11.0547 19.4426 5.42954C19.4426 5.24771 19.4426 5.06328 19.4348 4.88145C20.27 4.27684 20.9908 3.52829 21.5635 2.67089C20.7834 3.01488 19.9566 3.24159 19.1101 3.34367C20.0018 2.81069 20.6696 1.97209 20.9895 0.983745C20.1517 1.48005 19.2348 1.82845 18.2789 2.01369C17.6362 1.32926 16.7858 0.875838 15.8593 0.72367C14.9329 0.571502 13.9821 0.729078 13.1542 1.17199C12.3264 1.6149 11.6677 2.31843 11.2802 3.1736C10.8927 4.02877 10.798 4.98786 11.0108 5.90231C9.3155 5.8173 7.65703 5.3769 6.14292 4.60966C4.62882 3.84243 3.29289 2.7655 2.22179 1.44872C1.67803 2.38786 1.51209 3.49874 1.75766 4.55579C2.00322 5.61284 2.64189 6.53681 3.54397 7.14006C2.86799 7.1171 2.20688 6.93558 1.61395 6.61015V6.6686C1.61511 7.65242 1.95593 8.60566 2.57879 9.3672C3.20165 10.1287 4.06835 10.6519 5.03239 10.8481C4.66647 10.9489 4.28848 10.9992 3.90893 10.9975C3.64136 10.9983 3.37432 10.9735 3.11147 10.9235C3.38394 11.7704 3.91448 12.5108 4.62879 13.0411C5.34309 13.5715 6.20539 13.8651 7.09489 13.8808C5.58381 15.0677 3.71723 15.7114 1.79578 15.7083C1.45721 15.7097 1.11887 15.6902 0.782715 15.6498C2.73288 16.8931 4.99771 17.5533 7.31049 17.5526Z" fill="#EDEDED"/>
</svg>
