<svg width="63" height="63" viewBox="0 0 63 63" fill="none" xmlns="http://www.w3.org/2000/svg">
<path d="M0 0H22.4579C32.3686 0 40.4028 8.03418 40.4028 17.9448V40.4028H17.9448C8.03417 40.4028 0 32.3686 0 22.4579V0Z" fill="#131313"/>
<path d="M62.2206 0L62.2206 24.3839C62.2206 34.2945 54.1864 42.3287 44.2757 42.3287L19.8919 42.3287L19.8919 17.9448C19.8919 8.03417 27.9261 -1.49906e-06 37.8367 -1.06585e-06L62.2206 0Z" fill="#EE0000"/>
<path d="M40.4028 21.8179L40.4028 44.2758C40.4028 54.1865 32.3686 62.2206 22.4579 62.2206L-9.39546e-06 62.2206L-8.41379e-06 39.7627C-7.98058e-06 29.852 8.03418 21.8179 17.9448 21.8179L40.4028 21.8179Z" fill="#EE0000"/>
<path d="M18.585 19.0906H44.2757C54.1864 19.0906 62.2206 27.1248 62.2206 37.0354V62.7262H36.5298C26.6191 62.7262 18.585 54.692 18.585 44.7814V19.0906Z" fill="#131313"/>
</svg>
