<!-- icon666.com - MILLIONS vector ICONS FREE --><svg version="1.1" id="Capa_1" xmlns="http://www.w3.org/2000/svg" xmlns:xlink="http://www.w3.org/1999/xlink" x="0px" y="0px" viewBox="0 0 511 511" style="enable-background:new 0 0 511 511;" xml:space="preserve"><g><path d="M471.5,56H423V31.5c0-4.142-3.358-7.5-7.5-7.5s-7.5,3.358-7.5,7.5V56h-65V31.5c0-4.142-3.358-7.5-7.5-7.5 s-7.5,3.358-7.5,7.5V56h-65V31.5c0-4.142-3.358-7.5-7.5-7.5s-7.5,3.358-7.5,7.5V56h-65V31.5c0-4.142-3.358-7.5-7.5-7.5 s-7.5,3.358-7.5,7.5V56h-65V31.5c0-4.142-3.358-7.5-7.5-7.5S88,27.358,88,31.5V56H39.5C17.72,56,0,73.72,0,95.5v352 C0,469.28,17.72,487,39.5,487h432c21.78,0,39.5-17.72,39.5-39.5v-352C511,73.72,493.28,56,471.5,56z M496,447.5 c0,13.509-10.991,24.5-24.5,24.5h-432C25.991,472,15,461.009,15,447.5v-352C15,81.991,25.991,71,39.5,71H88v24.5 c0,4.142,3.358,7.5,7.5,7.5s7.5-3.358,7.5-7.5V71h65v24.5c0,4.142,3.358,7.5,7.5,7.5s7.5-3.358,7.5-7.5V71h65v24.5 c0,4.142,3.358,7.5,7.5,7.5s7.5-3.358,7.5-7.5V71h65v24.5c0,4.142,3.358,7.5,7.5,7.5s7.5-3.358,7.5-7.5V71h65v24.5 c0,4.142,3.358,7.5,7.5,7.5s7.5-3.358,7.5-7.5V71h48.5c13.509,0,24.5,10.991,24.5,24.5V447.5z"></path><path d="M471.5,136h-432c-4.142,0-7.5,3.358-7.5,7.5s3.358,7.5,7.5,7.5h432c4.142,0,7.5-3.358,7.5-7.5S475.642,136,471.5,136z"></path><path d="M446.5,176h-382c-4.687,0-8.5,3.813-8.5,8.5v254c0,4.687,3.813,8.5,8.5,8.5h382c4.687,0,8.5-3.813,8.5-8.5v-254 C455,179.813,451.187,176,446.5,176z M344,304h-81v-49h81V304z M359,255h81v49h-81V255z M263,240v-49h81v49H263z M248,240h-81v-49 h81V240z M248,255v49h-81v-49H248z M152,304H71v-49h81V304z M71,319h81v49H71V319z M167,319h81v49h-81V319z M248,383v49h-81v-49 H248z M263,383h81v49h-81V383z M263,368v-49h81v49H263z M359,319h81v49h-81V319z M440,240h-81v-49h81V240z M152,191v49H71v-49H152z M71,383h81v49H71V383z M359,432v-49h81v49H359z"></path></g></svg>