<svg width="16.000000" height="16.000000" viewBox="0 0 16 16" fill="none" xmlns="http://www.w3.org/2000/svg" xmlns:xlink="http://www.w3.org/1999/xlink">
	<defs/>
	<rect id="Icon/Social/Instagram" width="16.000000" height="16.000000" fill="#FFFFFF" fill-opacity="0"/>
	<path id="Combined Shape" d="M11 0L5 0C2.23901 0 0 2.23901 0 5L0 11C0 13.761 2.23901 16 5 16L11 16C13.761 16 16 13.761 16 11L16 5C16 2.23901 13.761 0 11 0ZM14.5 11C14.5 12.9299 12.9301 14.5 11 14.5L5 14.5C3.06995 14.5 1.5 12.9299 1.5 11L1.5 5C1.5 3.07007 3.06995 1.5 5 1.5L11 1.5C12.9301 1.5 14.5 3.07007 14.5 5L14.5 11ZM12.833 3.69995C12.833 3.99438 12.5944 4.23291 12.3 4.23291C12.0056 4.23291 11.7671 3.99438 11.7671 3.69995C11.7671 3.40552 12.0056 3.16699 12.3 3.16699C12.5944 3.16699 12.833 3.40552 12.833 3.69995ZM4 8C4 5.79102 5.79102 4 8 4C10.209 4 12 5.79102 12 8C12 10.209 10.209 12 8 12C5.79102 12 4 10.209 4 8ZM5.5 8C5.5 9.37793 6.62195 10.5 8 10.5C9.37805 10.5 10.5 9.37793 10.5 8C10.5 6.62109 9.37805 5.5 8 5.5C6.62195 5.5 5.5 6.62109 5.5 8Z" clip-rule="evenodd" fill="#B0B8BC" fill-opacity="1.000000" fill-rule="evenodd"/>
</svg>
