<svg width="16.000000" height="16.000000" viewBox="0 0 16 16" fill="none" xmlns="http://www.w3.org/2000/svg" xmlns:xlink="http://www.w3.org/1999/xlink">
	<defs/>
	<rect id="Icon/Social/Instagram Copy 3" width="16.000000" height="16.000000" fill="#FFFFFF" fill-opacity="0"/>
	<path id="Combined Shape" d="M3.5 1.75C3.5 2.71655 2.71655 3.5 1.75 3.5C0.783447 3.5 0 2.71655 0 1.75C0 0.783447 0.783447 0 1.75 0C2.71655 0 3.5 0.783447 3.5 1.75ZM0 5L3.578 5L3.578 16L0 16L0 5ZM13.324 5.12891C13.286 5.11694 13.25 5.104 13.21 5.09302C13.162 5.08203 13.114 5.073 13.0649 5.06494C12.875 5.0271 12.667 5 12.423 5C10.337 5 9.01404 6.51709 8.578 7.10303L8.578 5L5 5L5 16L8.578 16L8.578 10C8.578 10 11.282 6.23389 12.423 9L12.423 16L16 16L16 8.5769C16 6.91504 14.861 5.53003 13.324 5.12891Z" clip-rule="evenodd" fill="#B0B8BC" fill-opacity="1.000000" fill-rule="evenodd"/>
</svg>
