<svg width="16.000000" height="16.000000" viewBox="0 0 16 16" fill="none" xmlns="http://www.w3.org/2000/svg" xmlns:xlink="http://www.w3.org/1999/xlink">
	<defs/>
	<rect id="Icon/Social/Instagram Copy 2" width="16.000000" height="16.000000" fill="#FFFFFF" fill-opacity="0"/>
	<path id="Path" d="M16 2.87C15.4 3.13 14.77 3.3 14.11 3.39C14.79 2.98 15.3 2.34 15.55 1.57C14.91 1.95 14.21 2.22 13.47 2.37C12.87 1.73 12.01 1.33 11.07 1.33C9.26 1.33 7.79 2.8 7.79 4.61C7.79 4.87 7.82 5.12 7.87 5.36C5.14 5.22 2.73 3.92 1.11 1.93C0.83 2.42 0.66 2.98 0.66 3.58C0.66 4.72 1.25 5.73 2.12 6.31C1.59 6.3 1.07 6.15 0.64 5.91C0.64 5.92 0.64 5.93 0.64 5.94C0.64 7.54 1.77 8.86 3.26 9.17C3 9.24 2.7 9.27 2.4 9.27C2.19 9.27 1.98 9.26 1.78 9.22C2.21 10.52 3.41 11.47 4.85 11.5C3.73 12.38 2.31 12.9 0.78 12.9C0.51 12.9 0.25 12.89 0 12.86C1.45 13.79 3.17 14.33 5.03 14.33C11.06 14.33 14.36 9.33 14.36 4.99C14.36 4.85 14.36 4.71 14.35 4.57C15 4.11 15.55 3.53 16 2.87Z" fill="#B0B8BC" fill-opacity="1.000000" fill-rule="nonzero"/>
</svg>
