<svg width="16.000000" height="16.000000" viewBox="0 0 16 16" fill="none" xmlns="http://www.w3.org/2000/svg" xmlns:xlink="http://www.w3.org/1999/xlink">
	<defs/>
	<rect id="Icon/Social/Instagram Copy" width="16.000000" height="16.000000" fill="#FFFFFF" fill-opacity="0"/>
	<path id="Shape" d="M15.3199 3.72656C14.886 2.95459 14.415 2.8125 13.4561 2.75854C12.498 2.6936 10.089 2.6665 8.00195 2.6665C5.91101 2.6665 3.50098 2.6936 2.54395 2.75757C1.58704 2.8125 1.11499 2.95361 0.677002 3.72656C0.22998 4.49756 0 5.82544 0 8.16357L0 8.17139C0 10.4995 0.22998 11.8374 0.677002 12.6006C1.11499 13.3726 1.58606 13.5125 2.54297 13.5774C3.50098 13.6335 5.91101 13.6665 8.00195 13.6665C10.089 13.6665 12.498 13.6335 13.457 13.5786C14.416 13.5134 14.887 13.3735 15.321 12.6016C15.772 11.8386 16 10.5005 16 8.17261L16 8.16455C16 5.82544 15.772 4.49756 15.3199 3.72656ZM11 8.1665L6 5.1665L6 11.1665L11 8.1665Z" clip-rule="evenodd" fill="#B0B8BC" fill-opacity="1.000000" fill-rule="evenodd"/>
</svg>
