<?xml version="1.0" standalone="no"?>
<!DOCTYPE svg PUBLIC "-//W3C//DTD SVG 20010904//EN"
 "http://www.w3.org/TR/2001/REC-SVG-20010904/DTD/svg10.dtd">
<svg version="1.0" xmlns="http://www.w3.org/2000/svg"
 width="700.000000pt" height="700.000000pt" viewBox="0 0 700.000000 700.000000"
 preserveAspectRatio="xMidYMid meet">
<metadata>
Created by potrace 1.14, written by Peter Selinger 2001-2017
</metadata>
<g transform="translate(0.000000,700.000000) scale(0.100000,-0.100000)"
fill="#000000" stroke="none">
<path d="M3 5643 c1 -747 6 -1367 9 -1378 3 -11 9 -45 14 -75 4 -30 8 -57 9
-60 1 -3 7 -32 14 -65 16 -76 80 -277 92 -289 5 -6 9 -16 9 -22 0 -7 20 -55
45 -106 25 -51 45 -98 45 -104 0 -6 -22 -58 -49 -115 -84 -179 -144 -376 -167
-544 -3 -27 -9 -59 -12 -70 -3 -11 -8 -629 -9 -1372 -4 -1296 -3 -1353 14
-1354 97 -4 2594 1 2643 5 67 6 105 11 175 22 63 9 223 51 303 78 l73 25 57
-23 c126 -52 160 -65 227 -84 64 -19 211 -50 325 -68 25 -4 730 -9 1568 -11
1453 -3 1522 -3 1523 14 5 113 0 2940 -5 3003 -13 151 -45 309 -97 469 l-22
67 31 99 c28 94 49 173 58 220 12 68 24 160 30 225 5 56 9 2756 5 2853 -1 17
-70 17 -1423 16 -783 0 -1452 -5 -1488 -10 -36 -5 -81 -11 -100 -13 -129 -18
-296 -64 -445 -123 l-109 -44 -58 26 c-125 56 -331 117 -476 140 -23 4 -54 9
-70 12 -15 3 -638 8 -1385 10 l-1358 4 4 -1358z"/>
</g>
</svg>
